<svg width="109" height="48" viewBox="0 0 109 48" fill="none" xmlns="http://www.w3.org/2000/svg">
<g filter="url(#filter0_dd_656_7118)">
<rect x="6" y="2" width="97" height="36" rx="18" fill="#F7F7F7"/>
<path d="M28.0098 9.98926C33.5326 9.98328 38.0047 13.7996 38.0098 18.5C38.0108 19.4772 37.8149 20.4144 37.459 21.2881C37.8088 21.9635 38.005 22.7089 38.0059 23.4932C38.0072 24.8817 37.3972 26.1479 36.3936 27.1152C36.5016 27.5578 36.6081 27.992 36.7822 28.7051C36.8568 29.0126 36.5615 29.2841 36.2627 29.1816L34.2324 28.4844C33.4031 28.8091 32.4793 28.9921 31.5059 28.9932C29.4376 28.9953 27.5973 28.176 26.4072 26.9014C26.2255 26.8764 26.0455 26.8475 25.8672 26.8145L21.6602 28.7656C20.9429 29.0982 20.142 28.5039 20.249 27.7207C20.4551 26.2162 20.58 25.3024 20.7148 24.3184C19.0399 22.7958 18.0122 20.7501 18.0098 18.5C18.0048 13.7997 22.487 9.99523 28.0098 9.98926ZM28.0117 11.4893C23.0771 11.4946 19.5062 14.8478 19.5098 18.498C19.5117 20.2705 20.3177 21.9298 21.7236 23.208L22.3086 23.7393L22.2012 24.5215C22.0899 25.3338 21.9964 26.0116 21.8584 27.0195L25.2363 25.4541L25.6699 25.252L26.1406 25.3398C26.7431 25.4514 27.3676 25.5114 28.0078 25.5107C32.9425 25.5053 36.5135 22.1521 36.5098 18.502C36.5058 14.8439 32.9374 11.4841 28.0117 11.4893ZM24.501 17.5C25.053 17.5003 25.5009 17.9479 25.501 18.5C25.501 19.0521 25.053 19.4997 24.501 19.5C23.9487 19.5 23.501 19.0523 23.501 18.5C23.501 17.9477 23.9487 17.5 24.501 17.5ZM28.001 17.5C28.553 17.5003 29.0009 17.9479 29.001 18.5C29.001 19.0521 28.553 19.4997 28.001 19.5C27.4487 19.5 27.001 19.0523 27.001 18.5C27.001 17.9477 27.4487 17.5 28.001 17.5ZM31.501 17.5C32.053 17.5003 32.5009 17.9479 32.501 18.5C32.501 19.0521 32.053 19.4997 31.501 19.5C30.9487 19.5 30.501 19.0523 30.501 18.5C30.501 17.9477 30.9487 17.5 31.501 17.5Z" fill="#1A1A1A"/>
<path d="M55.0469 13.8574V26.2168H53.5977V19.9141H52.2031V25.5879H50.8086V14.0898H52.2031V18.6973H53.5977V13.8574H55.0469ZM49.4141 15.3203V16.5508H46.3242V22.0469C47.6709 22.0332 48.7783 21.9648 50.0293 21.7324L50.1387 22.9766C48.6484 23.2773 47.3496 23.3184 45.627 23.332H44.793V15.3203H49.4141ZM66.2852 13.8574V18.957H68.0215V20.2285H66.2852V26.2168H64.7539V13.8574H66.2852ZM56.3594 22.7852C57.2959 22.7852 58.3828 22.7852 59.5176 22.7578V21.5957C58.1709 21.3701 57.2891 20.5225 57.3027 19.3672C57.2891 17.9727 58.5195 17.043 60.2969 17.043C62.0469 17.043 63.291 17.9727 63.3047 19.3672C63.291 20.5293 62.3955 21.377 61.0488 21.5957V22.7031C62.0879 22.6484 63.127 22.5664 64.0977 22.4297L64.1934 23.5371C61.541 24.0156 58.6836 24.043 56.5781 24.043L56.3594 22.7852ZM63.9609 15.2793V16.4824H56.5918V15.2793H59.5176V13.9121H61.0488V15.2793H63.9609ZM60.2969 18.2051C59.3535 18.2188 58.7383 18.6426 58.7383 19.3672C58.7383 20.0781 59.3535 20.502 60.2969 20.4883C61.2266 20.502 61.8418 20.0781 61.8418 19.3672C61.8418 18.6426 61.2266 18.2188 60.2969 18.2051ZM78.2891 13.8574V18.7793H80.1895V20.0371H78.2891V26.2168H76.7852V13.8574H78.2891ZM75.8281 15.7578V16.9746H68.541V15.7578H71.4668V14.0352H72.9844V15.7578H75.8281ZM72.2324 17.7812C74.0098 17.7812 75.3359 18.9844 75.3359 20.6934C75.3359 22.4023 74.0098 23.5918 72.2324 23.5918C70.4277 23.5918 69.1016 22.4023 69.1152 20.6934C69.1016 18.9844 70.4277 17.7812 72.2324 17.7812ZM72.2324 19.0254C71.2617 19.0254 70.5645 19.6816 70.5645 20.6934C70.5645 21.7051 71.2617 22.3477 72.2324 22.334C73.1758 22.3477 73.873 21.7051 73.8867 20.6934C73.873 19.6816 73.1758 19.0254 72.2324 19.0254ZM91.0312 13.8574V26.2168H89.5V13.8574H91.0312ZM87.3398 15.1699C87.3398 18.8477 85.918 21.9785 81.584 24.0293L80.791 22.8125C84.0244 21.2744 85.5283 19.1826 85.7949 16.373H81.4199V15.1699H87.3398Z" fill="#1A1A1A"/>
</g>
<defs>
<filter id="filter0_dd_656_7118" x="0" y="0" width="109" height="48" filterUnits="userSpaceOnUse" color-interpolation-filters="sRGB">
<feFlood flood-opacity="0" result="BackgroundImageFix"/>
<feColorMatrix in="SourceAlpha" type="matrix" values="0 0 0 0 0 0 0 0 0 0 0 0 0 0 0 0 0 0 127 0" result="hardAlpha"/>
<feMorphology radius="2" operator="erode" in="SourceAlpha" result="effect1_dropShadow_656_7118"/>
<feOffset dy="2"/>
<feGaussianBlur stdDeviation="2"/>
<feColorMatrix type="matrix" values="0 0 0 0 0.0627451 0 0 0 0 0.0941176 0 0 0 0 0.156863 0 0 0 0.06 0"/>
<feBlend mode="normal" in2="BackgroundImageFix" result="effect1_dropShadow_656_7118"/>
<feColorMatrix in="SourceAlpha" type="matrix" values="0 0 0 0 0 0 0 0 0 0 0 0 0 0 0 0 0 0 127 0" result="hardAlpha"/>
<feMorphology radius="2" operator="erode" in="SourceAlpha" result="effect2_dropShadow_656_7118"/>
<feOffset dy="4"/>
<feGaussianBlur stdDeviation="4"/>
<feColorMatrix type="matrix" values="0 0 0 0 0.0627451 0 0 0 0 0.0941176 0 0 0 0 0.156863 0 0 0 0.1 0"/>
<feBlend mode="normal" in2="effect1_dropShadow_656_7118" result="effect2_dropShadow_656_7118"/>
<feBlend mode="normal" in="SourceGraphic" in2="effect2_dropShadow_656_7118" result="shape"/>
</filter>
</defs>
</svg>
